{
   "accessors" : 
   [
      {
         "bufferView" : 0,
         "byteOffset" : 0,
         "componentType" : 5126,
         "count" : 95141,
         "max" : [ 180.0, 83.623031616210938, 0.0 ],
         "min" : [ -180.00018310546875, -90.0, 0.0 ],
         "type" : "VEC3"
      },
      {
         "bufferView" : 1,
         "byteOffset" : 0,
         "componentType" : 5125,
         "count" : 188322,
         "type" : "SCALAR"
      }
   ],
   "asset" : 
   {
      "generator" : "VTK",
      "version" : "2.0"
   },
   "bufferViews" : 
   [
      {
         "buffer" : 0,
         "byteLength" : 1141692,
         "byteOffset" : 0
      },
      {
         "buffer" : 1,
         "byteLength" : 753288,
         "byteOffset" : 0
      }
   ],
   "buffers" : 
   [
      {
         "byteLength" : 1141692,
         "uri" : "data:application/octet-stream;base64,"
      },
      {
         "byteLength" : 753288,
         "uri" : "data:application/octet-stream;base64,"
      }
   ],
   "cameras" : 
   [
      {
         "perspective" : 
         {
            "aspectRatio" : 2.0251256281407035,
            "yfov" : 0.52359877559829882,
            "zfar" : 538.62656925333022,
            "znear" : 100.35736023712408
         },
         "type" : "perspective"
      }
   ],
   "materials" : 
   [
      {
         "pbrMetallicRoughness" : 
         {
            "baseColorFactor" : [ 1.0, 1.0, 1.0, 1.0 ],
            "metallicFactor" : 0.0,
            "roughnessFactor" : 1.0
         }
      }
   ],
   "meshes" : 
   [
      {
         "name" : "mesh0",
         "primitives" : 
         [
            {
               "attributes" : 
               {
                  "POSITION" : 0
               },
               "indices" : 1,
               "material" : 0,
               "mode" : 1
            }
         ]
      }
   ],
   "nodes" : 
   [
      {
         "mesh" : 0,
         "name" : "mesh0"
      },
      {
         "camera" : 0,
         "matrix" : 
         [
            0.86546447822924588,
            0.46071705510644978,
            0.19675119328080293,
            0.0,
            -0.4541475797395767,
            0.55574675045553878,
            0.69634440126620822,
            0.0,
            0.21147390557717557,
            -0.69201542214906575,
            0.69021260693194098,
            0.0,
            -53.489315377842011,
            -15.024694828791752,
            -291.85100430894101,
            1.0
         ],
         "name" : "Camera Node"
      },
      {
         "children" : [ 0, 1 ],
         "name" : "Renderer Node"
      }
   ],
   "scene" : 0,
   "scenes" : 
   [
      {
         "name" : "Layer 0",
         "nodes" : [ 2 ]
      }
   ]
}