{
   "accessors" : 
   [
      {
         "bufferView" : 0,
         "byteOffset" : 0,
         "componentType" : 5126,
         "count" : 131072,
         "max" : [ 44.5105, 63.466200000000001, 48.343800000000002 ],
         "min" : [ -10.803599999999999, -7.6637300000000002, -6.1013700000000002 ],
         "type" : "VEC3"
      },
      {
         "bufferView" : 1,
         "byteOffset" : 0,
         "componentType" : 5125,
         "count" : 131072,
         "type" : "SCALAR"
      },
      {
         "bufferView" : 2,
         "byteOffset" : 0,
         "componentType" : 5126,
         "count" : 4051,
         "max" : [ 100.0, 100.0, 0.0 ],
         "min" : [ -100.0, -100.0, 0.0 ],
         "type" : "VEC3"
      },
      {
         "bufferView" : 3,
         "byteOffset" : 0,
         "componentType" : 5125,
         "count" : 4051,
         "type" : "SCALAR"
      },
      {
         "bufferView" : 4,
         "byteOffset" : 0,
         "componentType" : 5126,
         "count" : 18,
         "max" : [ 25.751899999999999, 48.514800000000001, 0.0 ],
         "min" : [ 12.0961, 42.858400000000003, 0.0 ],
         "type" : "VEC3"
      },
      {
         "bufferView" : 5,
         "byteOffset" : 0,
         "componentType" : 5125,
         "count" : 18,
         "type" : "SCALAR"
      }
   ],
   "asset" : 
   {
      "generator" : "VTK",
      "version" : "2.0"
   },
   "bufferViews" : 
   [
      {
         "buffer" : 0,
         "byteLength" : 1572864,
         "byteOffset" : 0
      },
      {
         "buffer" : 1,
         "byteLength" : 524288,
         "byteOffset" : 0
      },
      {
         "buffer" : 2,
         "byteLength" : 48612,
         "byteOffset" : 0
      },
      {
         "buffer" : 3,
         "byteLength" : 16204,
         "byteOffset" : 0
      },
      {
         "buffer" : 4,
         "byteLength" : 216,
         "byteOffset" : 0
      },
      {
         "buffer" : 5,
         "byteLength" : 72,
         "byteOffset" : 0
      }
   ],
   "buffers" : 
   [
      {
         "byteLength" : 1572864,
         "uri" : "data:application/octet-stream;base64,"
      },
      {
         "byteLength" : 524288,
         "uri" : "data:application/octet-stream;base64,"
      },
      {
         "byteLength" : 48612,
         "uri" : "data:application/octet-stream;base64,"
      },
      {
         "byteLength" : 16204,
         "uri" : "data:application/octet-stream;base64,"
      },
      {
         "byteLength" : 216,
         "uri" : "data:application/octet-stream;base64,"
      },
      {
         "byteLength" : 72,
         "uri" : "data:application/octet-stream;base64,"
      }
   ],
   "cameras" : 
   [
      {
         "perspective" : 
         {
            "aspectRatio" : 2.0251256281407035,
            "yfov" : 0.52359877559829882,
            "zfar" : 506.83096963306355,
            "znear" : 0.50683096963306351
         },
         "type" : "perspective"
      }
   ],
   "materials" : 
   [
      {
         "pbrMetallicRoughness" : 
         {
            "baseColorFactor" : [ 1.0, 1.0, 1.0, 1.0 ],
            "metallicFactor" : 0.0,
            "roughnessFactor" : 1.0
         }
      },
      {
         "pbrMetallicRoughness" : 
         {
            "baseColorFactor" : [ 1.0, 1.0, 1.0, 1.0 ],
            "metallicFactor" : 0.0,
            "roughnessFactor" : 1.0
         }
      },
      {
         "pbrMetallicRoughness" : 
         {
            "baseColorFactor" : [ 1.0, 0.0, 1.0, 1.0 ],
            "metallicFactor" : 0.0,
            "roughnessFactor" : 1.0
         }
      }
   ],
   "meshes" : 
   [
      {
         "name" : "mesh0",
         "primitives" : 
         [
            {
               "attributes" : 
               {
                  "POSITION" : 0
               },
               "indices" : 1,
               "material" : 0,
               "mode" : 0
            }
         ]
      },
      {
         "name" : "mesh1",
         "primitives" : 
         [
            {
               "attributes" : 
               {
                  "POSITION" : 2
               },
               "indices" : 3,
               "material" : 1,
               "mode" : 0
            }
         ]
      },
      {
         "name" : "mesh2",
         "primitives" : 
         [
            {
               "attributes" : 
               {
                  "POSITION" : 4
               },
               "indices" : 5,
               "material" : 2,
               "mode" : 0
            }
         ]
      }
   ],
   "nodes" : 
   [
      {
         "mesh" : 0,
         "name" : "mesh0"
      },
      {
         "mesh" : 1,
         "name" : "mesh1"
      },
      {
         "mesh" : 2,
         "name" : "mesh2"
      },
      {
         "camera" : 0,
         "matrix" : 
         [
            -0.078650948125698561,
            0.40445134599885113,
            0.91117129952531217,
            0.0,
            0.93490590696760978,
            -0.28736758785194555,
            0.20825660750436062,
            0.0,
            0.34607076368280471,
            0.86823900981922708,
            -0.35552221921017602,
            0.0,
            -7.3094350049587078,
            -18.338262797778988,
            -191.67350347361941,
            1.0
         ],
         "name" : "Camera Node"
      },
      {
         "children" : [ 0, 1, 2, 3 ],
         "name" : "Renderer Node"
      }
   ],
   "scene" : 0,
   "scenes" : 
   [
      {
         "name" : "Layer 0",
         "nodes" : [ 4 ]
      }
   ]
}